<?xml version="1.0" encoding="UTF-8" standalone="no"?>
<svg width="70px" height="84px" viewBox="0 0 70 84" version="1.1" xmlns="http://www.w3.org/2000/svg" xmlns:xlink="http://www.w3.org/1999/xlink">
    <!-- Generator: Sketch 3.7.2 (28276) - http://www.bohemiancoding.com/sketch -->
    <title>favicon</title>
    <desc>Created with Sketch.</desc>
    <defs></defs>
    <g id="Page-1" stroke="none" stroke-width="1" fill="none" fill-rule="evenodd">
        <g id="Preloader" transform="translate(-944.000000, -447.000000)">
            <g id="favicon" transform="translate(944.000000, 447.000000)">
                <path d="M5.98931656,61.0033338 C-6.34118852,39.6447929 0.977722944,12.3318834 22.3376422,0 L30.5276557,14.1871103 C16.5348894,22.2682361 12.559797,40.135477 19.9558947,52.9442612 C27.3492358,65.7530455 44.8098705,71.2442966 58.8026368,63.1631708 L67.0160819,77.3392545 C45.6561629,89.6711346 18.3225783,82.363253 5.98931656,61.0033338 Z" id="Fill-7" fill="#003B79"></path>
                <path d="M25.0488863,50.6065165 C31.2193689,61.2999379 45.8461609,65.8978219 57.5450962,59.1452654 C69.3477057,52.3290054 72.5728446,37.4199202 66.3998638,26.7302459 C60.228132,16.0393226 45.7037651,11.3827316 33.9024047,18.1939952 C22.2022203,24.9490499 18.8746563,39.913095 25.0488863,50.6065165 Z" id="Fill-8" fill="#4E8969"></path>
            </g>
        </g>
    </g>
</svg>