<svg xmlns="http://www.w3.org/2000/svg">
    <symbol id="icon-origin-vind" viewBox="0 0 48 31">
        <title>wind</title>
        <path class="path1" d="M36.876,31 L6.354,31 C5.526,31 4.854,30.327 4.854,29.5 C4.854,28.673 5.526,28 6.354,28 L36.876,28 C40.854,28 44.092,24.357 44.092,19.88 C44.092,15.402 40.854,11.758 36.876,11.758 C35.445,11.758 34.062,12.231 32.873,13.126 C32.379,13.501 31.716,13.532 31.184,13.206 C30.654,12.88 30.384,12.274 30.493,11.663 C30.577,11.201 30.619,10.728 30.619,10.258 C30.619,6.364 27.812,3.195 24.36,3.195 C20.911,3.195 18.104,6.364 18.104,10.258 C18.123,11.017 17.566,11.743 16.865,11.864 C15.423,12.113 14.093,12.844 13.019,13.976 C12.449,14.577 11.499,14.601 10.899,14.035 C10.299,13.467 10.272,12.515 10.841,11.914 C12.055,10.63 13.541,9.696 15.155,9.195 C15.646,4.12 19.628,0.194 24.359,0.194 C29.148,0.194 33.152,4.238 33.581,9.349 C34.637,8.956 35.742,8.757 36.875,8.757 C42.508,8.757 47.091,13.746 47.091,19.879 C47.092,22.837 46.033,25.623 44.111,27.724 C42.179,29.836 39.609,31 36.876,31"></path>
        <path class="path2" d="M14.97,18.813 L5.856,18.813 C5.14,18.813 4.557,18.23 4.557,17.513 C4.557,16.796 5.14,16.213 5.856,16.213 L14.97,16.213 C15.686,16.213 16.27,16.796 16.27,17.513 C16.27,18.23 15.686,18.813 14.97,18.813"></path>
        <path class="path3" d="M14.329,22.612 L3.578,22.612 C2.861,22.612 2.278,22.029 2.278,21.312 C2.278,20.595 2.861,20.012 3.578,20.012 L14.329,20.012 C15.046,20.012 15.629,20.595 15.629,21.312 C15.629,22.029 15.046,22.612 14.329,22.612"></path>
        <path class="path4" d="M14.685,26.39 L1.301,26.39 C0.584,26.39 0,25.807 0,25.09 C0,24.373 0.584,23.79 1.301,23.79 L14.685,23.79 C15.401,23.79 15.984,24.373 15.984,25.09 C15.984,25.807 15.401,26.39 14.685,26.39"></path>
    </symbol>
    <symbol id="icon-origin-vatten" viewBox="0 0 28 40">
        <path class="path1" d="M13.602,40 C6.102,40 0,33.897 0,26.397 C0,23.752 0.777,21.173 2.247,18.937 L8.493,7.993 C8.883,7.316 9.749,7.085 10.425,7.476 C11.101,7.866 11.332,8.731 10.942,9.408 L9.703,11.554 L4.658,20.414 C3.444,22.265 2.828,24.306 2.828,26.397 C2.828,32.338 7.661,37.172 13.601,37.172 C19.541,37.172 24.374,32.338 24.374,26.397 C24.374,24.305 23.757,22.265 22.591,20.491 L17.496,11.546 L12.377,2.687 C11.987,2.011 12.218,1.146 12.895,0.755 C13.57,0.364 14.434,0.595 14.826,1.272 L19.949,10.139 L25.001,19.013 C26.425,21.171 27.203,23.751 27.203,26.396 C27.203,33.897 21.102,40 13.602,40"></path>
        <path class="path2" d="M13.869,35.726 C13.088,35.726 12.455,35.093 12.455,34.311 C12.455,33.531 13.088,32.897 13.869,32.897 C17.501,32.897 20.454,29.943 20.454,26.311 C20.454,25.034 20.077,23.785 19.364,22.703 C18.934,22.05 19.115,21.173 19.766,20.743 C20.419,20.315 21.296,20.495 21.726,21.147 C22.745,22.693 23.283,24.479 23.283,26.311 C23.283,31.502 19.06,35.726 13.869,35.726" ></path>
    </symbol>
    <symbol id="icon-origin-solel" viewBox="0 0 41 41">
        <path class="path1" d="M20.336,12.843 C24.649,12.843 28.157,16.351 28.157,20.664 C28.157,24.977 24.649,28.486 20.336,28.486 C16.023,28.486 12.514,24.977 12.514,20.664 C12.514,16.352 16.023,12.843 20.336,12.843 L20.336,12.843 Z M20.336,31.614 C26.373,31.614 31.286,26.702 31.286,20.664 C31.286,14.626 26.373,9.714 20.336,9.714 C14.298,9.714 9.386,14.626 9.386,20.664 C9.386,26.702 14.298,31.614 20.336,31.614 L20.336,31.614 Z"></path>
        <path class="path2" d="M21.9,39.436 L21.9,34.073 C21.9,33.209 21.2,32.509 20.336,32.509 C19.472,32.509 18.771,33.209 18.771,34.073 L18.771,39.436 C18.771,40.3 19.472,41 20.336,41 C21.2,41 21.9,40.3 21.9,39.436"></path>
        <path class="path3" d="M20.336,8.82 C21.2,8.82 21.9,8.12 21.9,7.256 L21.9,1.892 C21.9,1.029 21.2,0.328 20.336,0.328 C19.472,0.328 18.771,1.029 18.771,1.892 L18.771,7.256 C18.771,8.12 19.472,8.82 20.336,8.82"></path>
        <path class="path4" d="M32.18,20.664 C32.18,21.528 32.88,22.228 33.743,22.228 L39.107,22.228 C39.971,22.228 40.672,21.528 40.672,20.664 C40.672,19.8 39.971,19.1 39.107,19.1 L33.743,19.1 C32.88,19.1 32.18,19.8 32.18,20.664"></path>
        <path class="path5" d="M1.565,22.228 L6.927,22.228 C7.791,22.228 8.491,21.528 8.491,20.664 C8.491,19.8 7.791,19.1 6.927,19.1 L1.565,19.1 C0.7,19.1 0,19.8 0,20.664 C0,21.528 0.7,22.228 1.565,22.228"></path>
        <path class="path6" d="M28.824,29.039 C28.213,29.65 28.213,30.641 28.824,31.251 L32.617,35.044 C32.922,35.349 33.323,35.502 33.723,35.502 C34.123,35.502 34.523,35.349 34.828,35.044 C35.44,34.433 35.44,33.443 34.828,32.832 L31.036,29.039 C30.426,28.428 29.436,28.428 28.824,29.039"></path>
        <path class="path7" d="M9.862,12.289 C10.168,12.594 10.568,12.747 10.968,12.747 C11.368,12.747 11.769,12.594 12.074,12.289 C12.685,11.678 12.685,10.688 12.074,10.077 L8.282,6.284 C7.67,5.673 6.681,5.673 6.07,6.284 C5.458,6.895 5.458,7.886 6.07,8.497 L9.862,12.289"></path>
        <path class="path8" d="M9.749,29.039 L5.956,32.832 C5.345,33.443 5.345,34.433 5.956,35.044 C6.262,35.349 6.662,35.502 7.062,35.502 C7.462,35.502 7.862,35.349 8.168,35.044 L11.96,31.251 C12.572,30.641 12.572,29.65 11.96,29.039 C11.35,28.428 10.36,28.428 9.749,29.039"></path>
        <path class="path9" d="M29.817,12.747 C30.217,12.747 30.617,12.594 30.923,12.289 L34.715,8.497 C35.326,7.886 35.326,6.895 34.715,6.284 C34.104,5.673 33.114,5.673 32.503,6.284 L28.711,10.077 C28.099,10.688 28.099,11.678 28.711,12.289 C29.017,12.595 29.417,12.747 29.817,12.747"></path>
    </symbol>
    <symbol id="icon-usage.type.small-house" viewBox="0 0 50 50">
        <path class="path1" d="M-110.5,50h-27.3c-1.2,0-2.1-1-2.1-2.1V2.1c0-1.2,1-2.1,2.1-2.1h27.4c1.2,0,2.1,1,2.1,2.1V48 C-108.4,49-109.4,50-110.5,50z M-135.9,45.9h23.3V4.1h-23.3V45.9z"/>
        <path class="path2" d="M-124.3,50c-1.2,0-2.1-1-2.1-2.1V2.1c0-1.2,1-2.1,2.1-2.1s2.1,1,2.1,2.1V48 C-122.1,49-123.1,50-124.3,50z"/>
        <path class="path3" d="M-111.6,19.1h-26.3c-1.2,0-2.1-1-2.1-2.1s1-2.1,2.1-2.1h26.4c1.2,0,2.1,1,2.1,2.1 C-109.5,18.2-110.4,19.1-111.6,19.1z"/>
        <path class="path4" d="M-111.6,35h-26.3c-1.2,0-2.1-1-2.1-2.1s1-2.1,2.1-2.1h26.4c1.2,0,2.1,1,2.1,2.1 C-109.5,34-110.4,35-111.6,35z"/>
        <path class="path5" d="M-92.1,50h-17.3c-1.2,0-2.1-1-2.1-2.1V25c0-1.2,1-2.1,2.1-2.1h17.3c1.2,0,2.1,1,2.1,2.1v22.9 C-90,49-91,50-92.1,50z M-108.3,45.9h14.2V27.1h-14.2V45.9z"/>
        <path class="path6" d="M-101.3,50c-1.2,0-2.1-1-2.1-2.1V37.8c0-1.2,1-2.1,2.1-2.1s2.1,1,2.1,2.1v10.1 C-99.3,49-100.1,50-101.3,50z"/>
        <path class="path7" d="M-25.7,47h-38c-1.2,0-2.1-0.9-2.1-2V12.3c0-1.1,1-2,2.1-2c1.2,0,2.1,0.9,2.1,2V43h33.8V12.3 c0-1.1,1-2,2.1-2s2.1,0.9,2.1,2V45C-23.5,46.1-24.5,47-25.7,47z"/>
        <path class="path8" d="M-68,16c-0.6,0-1.4-0.3-1.7-0.9c-0.6-0.9-0.3-2.1,0.6-2.7l17.1-10.7c0.5-0.3,1.3-0.4,1.8-0.2 l28.7,9c1.1,0.3,1.7,1.5,1.3,2.5c-0.3,1-1.6,1.6-2.7,1.2l-27.6-8.7l-16.4,10.1C-67.2,15.9-67.6,16-68,16z"/>
        <path class="path9" d="M-34.2,10.5c-1.2,0-2.1-0.9-2.1-2V2c0-1.1,1-2,2.1-2c1.2,0,2.1,0.9,2.1,2v6.5 C-32.1,9.6-33.1,10.5-34.2,10.5z"/>
        <path class="path10" d="M-51.7,25.5c-1.2,0-2.1-0.9-2.1-2v-2.9c0-1.1,1-2,2.1-2s2.1,0.9,2.1,2v2.9 C-49.6,24.7-50.6,25.5-51.7,25.5z"/>
        <path class="path11" d="M-37.6,25.5c-1.2,0-2.1-0.9-2.1-2v-2.9c0-1.1,1-2,2.1-2s2.1,0.9,2.1,2v2.9 C-35.5,24.7-36.5,25.5-37.6,25.5z"/>
        <path class="path12" d="M-51.7,38.7c-1.2,0-2.1-0.9-2.1-2v-2.9c0-1.1,1-2,2.1-2s2.1,0.9,2.1,2v2.9 C-49.6,37.8-50.6,38.7-51.7,38.7z"/>
        <path class="path13" d="M-37.6,38.7c-1.2,0-2.1-0.9-2.1-2v-2.9c0-1.1,1-2,2.1-2s2.1,0.9,2.1,2v2.9 C-35.5,37.8-36.5,38.7-37.6,38.7z"/>
        <path class="path14" d="M43,50H7.1C5.9,50,5,49,5,47.9V21.7c0-1.2,1-2.1,2.1-2.1H43c1.2,0,2.1,1,2.1,2.1v26.2 C45.1,49,44.2,50,43,50z M9.2,45.9H41v-23H9.2V45.9z"/>
        <path class="path15" d="M48,22.8L48,22.8H2.1c-0.6,0-1.2-0.3-1.6-0.7c-0.4-0.5-0.5-1.2-0.4-1.7l2.1-10.2 c0.2-1,1.1-1.7,2-1.7h41.5c1,0,1.8,0.7,2,1.7l2,10c0.1,0.2,0.1,0.4,0.1,0.7C50,21.9,49.2,22.8,48,22.8z M4.7,18.7h40.7l-1.2-6.1H5.9 L4.7,18.7z"/>
        <path class="path16" d="M14.4,12.6c-1.2,0-2.1-1-2.1-2.1V2.1c0-1.2,1-2.1,2.1-2.1s2.1,1,2.1,2.1v8.4 C16.6,11.7,15.6,12.6,14.4,12.6z"/>
        <path class="path17" d="M29.6,50h-9.1c-1.2,0-2.1-1-2.1-2.1V32.4c0-1.2,1-2.1,2.1-2.1h9.1c1.2,0,2.1,1,2.1,2.1V48 C31.6,49,30.8,50,29.6,50z M22.6,45.9h5V34.4h-5V45.9z"/>
        <path class="path18" d="M48,50H2.1C1,50,0,49,0,47.9s1-2.1,2.1-2.1h45.8c1.2,0,2.1,1,2.1,2.1S49,50,48,50z"/>
    </symbol>
    <symbol id="icon-usage.type.large-house" viewBox="0 0 50 47">
        <path class="path1" d="M-40.5,50h-27.3c-1.2,0-2.1-1-2.1-2.1V2.1C-70,1-69,0-67.9,0h27.4c1.2,0,2.1,1,2.1,2.1V48 C-38.4,49-39.4,50-40.5,50z M-65.9,45.9h23.3V4.1h-23.3V45.9z"/>
        <path class="path2" d="M-54.3,50c-1.2,0-2.1-1-2.1-2.1V2.1c0-1.2,1-2.1,2.1-2.1c1.2,0,2.1,1,2.1,2.1V48 C-52.1,49-53.1,50-54.3,50z"/>
        <path class="path3" d="M-41.6,19.1h-26.3c-1.2,0-2.1-1-2.1-2.1s1-2.1,2.1-2.1h26.4c1.2,0,2.1,1,2.1,2.1 C-39.5,18.2-40.4,19.1-41.6,19.1z"/>
        <path class="path4" d="M-41.6,35h-26.3c-1.2,0-2.1-1-2.1-2.1s1-2.1,2.1-2.1h26.4c1.2,0,2.1,1,2.1,2.1 C-39.5,34-40.4,35-41.6,35z"/>
        <path class="path5" d="M-22.1,50h-17.3c-1.2,0-2.1-1-2.1-2.1V25c0-1.2,1-2.1,2.1-2.1h17.3c1.2,0,2.1,1,2.1,2.1v22.9 C-20,49-21,50-22.1,50z M-38.3,45.9h14.2V27.1h-14.2V45.9z"/>
        <path class="path6" d="M-31.3,50c-1.2,0-2.1-1-2.1-2.1V37.8c0-1.2,1-2.1,2.1-2.1c1.2,0,2.1,1,2.1,2.1v10.1 C-29.3,49-30.1,50-31.3,50z"/>
        <path class="path7" d="M44.3,47h-38c-1.2,0-2.1-0.9-2.1-2V12.3c0-1.1,1-2,2.1-2s2.1,0.9,2.1,2V43h33.8V12.3 c0-1.1,1-2,2.1-2c1.2,0,2.1,0.9,2.1,2V45C46.5,46.1,45.5,47,44.3,47z"/>
        <path class="path8" d="M2,16c-0.6,0-1.4-0.3-1.7-0.9C-0.3,14.2,0,13,1,12.4L18.1,1.7c0.5-0.3,1.3-0.4,1.8-0.2l28.7,9 c1.1,0.3,1.7,1.5,1.3,2.5c-0.3,1-1.6,1.6-2.7,1.2L19.5,5.5L3.1,15.6C2.8,15.9,2.4,16,2,16z"/>
        <path class="path9" d="M35.8,10.5c-1.2,0-2.1-0.9-2.1-2V2c0-1.1,1-2,2.1-2c1.2,0,2.1,0.9,2.1,2v6.5 C37.9,9.6,36.9,10.5,35.8,10.5z"/>
        <path class="path10" d="M18.3,25.5c-1.2,0-2.1-0.9-2.1-2v-2.9c0-1.1,1-2,2.1-2s2.1,0.9,2.1,2v2.9 C20.4,24.7,19.4,25.5,18.3,25.5z"/>
        <path class="path11" d="M32.4,25.5c-1.2,0-2.1-0.9-2.1-2v-2.9c0-1.1,1-2,2.1-2s2.1,0.9,2.1,2v2.9 C34.5,24.7,33.5,25.5,32.4,25.5z"/>
        <path class="path12" d="M18.3,38.7c-1.2,0-2.1-0.9-2.1-2v-2.9c0-1.1,1-2,2.1-2s2.1,0.9,2.1,2v2.9 C20.4,37.8,19.4,38.7,18.3,38.7z"/>
        <path class="path13" d="M32.4,38.7c-1.2,0-2.1-0.9-2.1-2v-2.9c0-1.1,1-2,2.1-2s2.1,0.9,2.1,2v2.9 C34.5,37.8,33.5,38.7,32.4,38.7z"/>
     </symbol>
     <symbol id="icon-usage.type.apartment" viewBox="0 0 50 50">
        <path class="path1" d="M29.5,50H2.1C1,50,0,49,0,47.9V2.1C0,1,1,0,2.1,0h27.4c1.2,0,2.1,1,2.1,2.1V48 C31.6,49,30.6,50,29.5,50z M4.1,45.9h23.3V4.1H4.1V45.9z"/>
        <path class="path2" d="M15.7,50c-1.2,0-2.1-1-2.1-2.1V2.1c0-1.2,1-2.1,2.1-2.1s2.1,1,2.1,2.1V48 C17.9,49,16.9,50,15.7,50z"/>
        <path class="path3" d="M28.4,19.1H2.1C1,19.1,0,18.2,0,17s1-2.1,2.1-2.1h26.4c1.2,0,2.1,1,2.1,2.1 C30.5,18.2,29.6,19.1,28.4,19.1z"/>
        <path class="path4" d="M28.4,35H2.1C1,35,0,34,0,32.9s1-2.1,2.1-2.1h26.4c1.2,0,2.1,1,2.1,2.1 C30.5,34,29.6,35,28.4,35z"/>
        <path class="path5" d="M47.9,50H30.6c-1.2,0-2.1-1-2.1-2.1V25c0-1.2,1-2.1,2.1-2.1h17.3c1.2,0,2.1,1,2.1,2.1v22.9 C50,49,49,50,47.9,50z M31.7,45.9h14.2V27.1H31.7V45.9z"/>
        <path class="path6" d="M38.7,50c-1.2,0-2.1-1-2.1-2.1V37.8c0-1.2,1-2.1,2.1-2.1c1.2,0,2.1,1,2.1,2.1v10.1 C40.7,49,39.9,50,38.7,50z"/>
     </symbol>
     <symbol id="icon-call-us-circle" viewBox="0 0 42 42">
        <g stroke="none" stroke-width="1" fill-rule="evenodd">
            <circle cx="21" cy="21" r="21"></circle>
            <g transform="translate(13.000000, 6.000000)" fill="#FFFFFF">
                <path class="path1" d="M0,1.99821383 C0,0.894630804 0.894513756,0 1.99406028,0 L14.0059397,0 C15.1072288,0 16,0.894337654 16,1.99821383 L16,29.0017862 C16,30.1053692 15.1054862,31 14.0059397,31 L1.99406028,31 C0.892771196,31 0,30.1056623 0,29.0017862 L0,1.99821383 Z M1,5 L15,5 L15,25 L1,25 L1,5 Z M8 30 C9.1045695,30 10,29.1045695 10,28 C10,26.8954305 9.1045695,26 8,26 C6.8954305,26 6,26.8954305 6,28 C6,29.1045695 6.8954305,30 8,30 Z"></path>
                <path class="path2" d="M11,18 L12.0046024,18 C12.5443356,18 13,17.553384 13,17.0024554 L13,9.99754465 C13,9.4463114 12.5543453,9 12.0046024,9 L3.99539757,9 C3.4556644,9 3,9.44661595 3,9.99754465 L3,17.0024554 C3,17.5536886 3.44565467,18 3.99539757,18 L8.17157288,18 L11,20.8284271 L11,18 Z"></path>
                <circle cx="8" cy="28" r="1"></circle>
            </g>
        </g>
    </symbol>
    <symbol id="icon-call-us" viewBox="0 0 15 31">
        <g stroke="none" stroke-width="1" fill-rule="evenodd">
            <path class="path1" d="M0,1.99821383 C0,0.894630804 0.893397331,0 1.99188419,0 L13.0081158,0 C14.1082031,0 15,0.894337654 15,1.99821383 L15,29.0017862 C15,30.1053692 14.1066027,31 13.0081158,31 L1.99188419,31 C0.891796927,31 0,30.1056623 0,29.0017862 L0,1.99821383 Z M1,5 L14,5 L14,24 L1,24 L1 5 Z M7.5,29 C8.32842712,29 9,28.3284271 9,27.5 C9,26.6715729 8.32842712,26 7.5,26 C6.67157288,26 6,26.6715729 6,27.5 C6,28.3284271 6.67157288,29 7.5,29 Z"></path>
        </g>
    </symbol>
    <symbol id="icon-back-arrow" viewBox="0 0 12 8">
        <g id="Symbols" stroke="none" stroke-width="1" fill-rule="evenodd">
            <g id="back-button" transform="translate(0.000000, -5.000000)">
                <g id="Group" transform="translate(0.000000, 5.000000)">
                    <polygon id="Triangle-3" transform="translate(3.000000, 4.000000) scale(-1, -1) rotate(-270.000000) translate(-3.000000, -4.000000) " points="3 1 7 7 -1 7"></polygon>
                    <rect id="Rectangle-124" x="6" y="3" width="6" height="2"></rect>
                </g>
            </g>
        </g>
    </symbol>
</svg>